0
SECTION
2
HEADER
0
ENDSEC
0
SECTION
2
TABLES
0
TABLE
2
LAYER
70
4
0
LAYER
2
FRAME
70
0
62
7
6
CONTINUOUS
0
LAYER
2
TRI_GRID
70
0
62
8
6
CONTINUOUS
0
LAYER
2
BLACK_FILL
70
0
62
0
6
CONTINUOUS
0
LAYER
2
LABELS
70
0
62
2
6
CONTINUOUS
0
ENDTAB
0
ENDSEC
0
SECTION
2
ENTITIES
0
TEXT
8
LABELS
10
180.000000
20
20.000000
30
0.0
40
12.000000
1
state sheet 011
0
TEXT
8
LABELS
10
180.000000
20
5.000000
30
0.0
40
8.000000
1
(A,sigma,tau)=(0,1,1)
0
LWPOLYLINE
8
BLACK_FILL
90
3
70
1
10
198.000000
20
-20.000000
10
243.000000
20
-20.000000
10
243.000000
20
-65.000000
0
LWPOLYLINE
8
BLACK_FILL
90
3
70
1
10
243.000000
20
-20.000000
10
288.000000
20
-20.000000
10
288.000000
20
-65.000000
0
LWPOLYLINE
8
BLACK_FILL
90
3
70
1
10
243.000000
20
-20.000000
10
288.000000
20
-65.000000
10
243.000000
20
-65.000000
0
LWPOLYLINE
8
BLACK_FILL
90
3
70
1
10
288.000000
20
-20.000000
10
333.000000
20
-65.000000
10
288.000000
20
-65.000000
0
LWPOLYLINE
8
BLACK_FILL
90
3
70
1
10
333.000000
20
-20.000000
10
378.000000
20
-20.000000
10
378.000000
20
-65.000000
0
LWPOLYLINE
8
BLACK_FILL
90
3
70
1
10
198.000000
20
-65.000000
10
243.000000
20
-65.000000
10
243.000000
20
-110.000000
0
LWPOLYLINE
8
BLACK_FILL
90
3
70
1
10
198.000000
20
-65.000000
10
243.000000
20
-110.000000
10
198.000000
20
-110.000000
0
LWPOLYLINE
8
BLACK_FILL
90
3
70
1
10
243.000000
20
-65.000000
10
288.000000
20
-110.000000
10
243.000000
20
-110.000000
0
LWPOLYLINE
8
BLACK_FILL
90
3
70
1
10
288.000000
20
-65.000000
10
333.000000
20
-65.000000
10
333.000000
20
-110.000000
0
LWPOLYLINE
8
BLACK_FILL
90
3
70
1
10
333.000000
20
-65.000000
10
378.000000
20
-65.000000
10
378.000000
20
-110.000000
0
LWPOLYLINE
8
BLACK_FILL
90
3
70
1
10
333.000000
20
-65.000000
10
378.000000
20
-110.000000
10
333.000000
20
-110.000000
0
LWPOLYLINE
8
BLACK_FILL
90
3
70
1
10
198.000000
20
-110.000000
10
243.000000
20
-155.000000
10
198.000000
20
-155.000000
0
LWPOLYLINE
8
BLACK_FILL
90
3
70
1
10
243.000000
20
-110.000000
10
288.000000
20
-110.000000
10
288.000000
20
-155.000000
0
LWPOLYLINE
8
BLACK_FILL
90
3
70
1
10
288.000000
20
-110.000000
10
333.000000
20
-110.000000
10
333.000000
20
-155.000000
0
LWPOLYLINE
8
BLACK_FILL
90
3
70
1
10
288.000000
20
-110.000000
10
333.000000
20
-155.000000
10
288.000000
20
-155.000000
0
LWPOLYLINE
8
BLACK_FILL
90
3
70
1
10
333.000000
20
-110.000000
10
378.000000
20
-155.000000
10
333.000000
20
-155.000000
0
LWPOLYLINE
8
BLACK_FILL
90
3
70
1
10
198.000000
20
-155.000000
10
243.000000
20
-155.000000
10
243.000000
20
-200.000000
0
LWPOLYLINE
8
BLACK_FILL
90
3
70
1
10
243.000000
20
-155.000000
10
288.000000
20
-155.000000
10
288.000000
20
-200.000000
0
LWPOLYLINE
8
BLACK_FILL
90
3
70
1
10
243.000000
20
-155.000000
10
288.000000
20
-200.000000
10
243.000000
20
-200.000000
0
LWPOLYLINE
8
BLACK_FILL
90
3
70
1
10
288.000000
20
-155.000000
10
333.000000
20
-200.000000
10
288.000000
20
-200.000000
0
LWPOLYLINE
8
BLACK_FILL
90
3
70
1
10
333.000000
20
-155.000000
10
378.000000
20
-155.000000
10
378.000000
20
-200.000000
0
LINE
8
TRI_GRID
10
198.000000
20
-20.000000
30
0.0
11
243.000000
21
-20.000000
31
0.0
0
LINE
8
TRI_GRID
10
243.000000
20
-20.000000
30
0.0
11
243.000000
21
-65.000000
31
0.0
0
LINE
8
TRI_GRID
10
243.000000
20
-65.000000
30
0.0
11
198.000000
21
-20.000000
31
0.0
0
LINE
8
TRI_GRID
10
243.000000
20
-65.000000
30
0.0
11
198.000000
21
-65.000000
31
0.0
0
LINE
8
TRI_GRID
10
198.000000
20
-65.000000
30
0.0
11
198.000000
21
-20.000000
31
0.0
0
LINE
8
TRI_GRID
10
243.000000
20
-20.000000
30
0.0
11
288.000000
21
-20.000000
31
0.0
0
LINE
8
TRI_GRID
10
288.000000
20
-20.000000
30
0.0
11
288.000000
21
-65.000000
31
0.0
0
LINE
8
TRI_GRID
10
288.000000
20
-65.000000
30
0.0
11
243.000000
21
-20.000000
31
0.0
0
LINE
8
TRI_GRID
10
288.000000
20
-65.000000
30
0.0
11
243.000000
21
-65.000000
31
0.0
0
LINE
8
TRI_GRID
10
288.000000
20
-20.000000
30
0.0
11
333.000000
21
-20.000000
31
0.0
0
LINE
8
TRI_GRID
10
333.000000
20
-20.000000
30
0.0
11
333.000000
21
-65.000000
31
0.0
0
LINE
8
TRI_GRID
10
333.000000
20
-65.000000
30
0.0
11
288.000000
21
-20.000000
31
0.0
0
LINE
8
TRI_GRID
10
333.000000
20
-65.000000
30
0.0
11
288.000000
21
-65.000000
31
0.0
0
LINE
8
TRI_GRID
10
333.000000
20
-20.000000
30
0.0
11
378.000000
21
-20.000000
31
0.0
0
LINE
8
TRI_GRID
10
378.000000
20
-20.000000
30
0.0
11
378.000000
21
-65.000000
31
0.0
0
LINE
8
TRI_GRID
10
378.000000
20
-65.000000
30
0.0
11
333.000000
21
-20.000000
31
0.0
0
LINE
8
TRI_GRID
10
378.000000
20
-65.000000
30
0.0
11
333.000000
21
-65.000000
31
0.0
0
LINE
8
TRI_GRID
10
243.000000
20
-65.000000
30
0.0
11
243.000000
21
-110.000000
31
0.0
0
LINE
8
TRI_GRID
10
243.000000
20
-110.000000
30
0.0
11
198.000000
21
-65.000000
31
0.0
0
LINE
8
TRI_GRID
10
243.000000
20
-110.000000
30
0.0
11
198.000000
21
-110.000000
31
0.0
0
LINE
8
TRI_GRID
10
198.000000
20
-110.000000
30
0.0
11
198.000000
21
-65.000000
31
0.0
0
LINE
8
TRI_GRID
10
288.000000
20
-65.000000
30
0.0
11
288.000000
21
-110.000000
31
0.0
0
LINE
8
TRI_GRID
10
288.000000
20
-110.000000
30
0.0
11
243.000000
21
-65.000000
31
0.0
0
LINE
8
TRI_GRID
10
288.000000
20
-110.000000
30
0.0
11
243.000000
21
-110.000000
31
0.0
0
LINE
8
TRI_GRID
10
333.000000
20
-65.000000
30
0.0
11
333.000000
21
-110.000000
31
0.0
0
LINE
8
TRI_GRID
10
333.000000
20
-110.000000
30
0.0
11
288.000000
21
-65.000000
31
0.0
0
LINE
8
TRI_GRID
10
333.000000
20
-110.000000
30
0.0
11
288.000000
21
-110.000000
31
0.0
0
LINE
8
TRI_GRID
10
378.000000
20
-65.000000
30
0.0
11
378.000000
21
-110.000000
31
0.0
0
LINE
8
TRI_GRID
10
378.000000
20
-110.000000
30
0.0
11
333.000000
21
-65.000000
31
0.0
0
LINE
8
TRI_GRID
10
378.000000
20
-110.000000
30
0.0
11
333.000000
21
-110.000000
31
0.0
0
LINE
8
TRI_GRID
10
243.000000
20
-110.000000
30
0.0
11
243.000000
21
-155.000000
31
0.0
0
LINE
8
TRI_GRID
10
243.000000
20
-155.000000
30
0.0
11
198.000000
21
-110.000000
31
0.0
0
LINE
8
TRI_GRID
10
243.000000
20
-155.000000
30
0.0
11
198.000000
21
-155.000000
31
0.0
0
LINE
8
TRI_GRID
10
198.000000
20
-155.000000
30
0.0
11
198.000000
21
-110.000000
31
0.0
0
LINE
8
TRI_GRID
10
288.000000
20
-110.000000
30
0.0
11
288.000000
21
-155.000000
31
0.0
0
LINE
8
TRI_GRID
10
288.000000
20
-155.000000
30
0.0
11
243.000000
21
-110.000000
31
0.0
0
LINE
8
TRI_GRID
10
288.000000
20
-155.000000
30
0.0
11
243.000000
21
-155.000000
31
0.0
0
LINE
8
TRI_GRID
10
333.000000
20
-110.000000
30
0.0
11
333.000000
21
-155.000000
31
0.0
0
LINE
8
TRI_GRID
10
333.000000
20
-155.000000
30
0.0
11
288.000000
21
-110.000000
31
0.0
0
LINE
8
TRI_GRID
10
333.000000
20
-155.000000
30
0.0
11
288.000000
21
-155.000000
31
0.0
0
LINE
8
TRI_GRID
10
378.000000
20
-110.000000
30
0.0
11
378.000000
21
-155.000000
31
0.0
0
LINE
8
TRI_GRID
10
378.000000
20
-155.000000
30
0.0
11
333.000000
21
-110.000000
31
0.0
0
LINE
8
TRI_GRID
10
378.000000
20
-155.000000
30
0.0
11
333.000000
21
-155.000000
31
0.0
0
LINE
8
TRI_GRID
10
243.000000
20
-155.000000
30
0.0
11
243.000000
21
-200.000000
31
0.0
0
LINE
8
TRI_GRID
10
243.000000
20
-200.000000
30
0.0
11
198.000000
21
-155.000000
31
0.0
0
LINE
8
TRI_GRID
10
243.000000
20
-200.000000
30
0.0
11
198.000000
21
-200.000000
31
0.0
0
LINE
8
TRI_GRID
10
198.000000
20
-200.000000
30
0.0
11
198.000000
21
-155.000000
31
0.0
0
LINE
8
TRI_GRID
10
288.000000
20
-155.000000
30
0.0
11
288.000000
21
-200.000000
31
0.0
0
LINE
8
TRI_GRID
10
288.000000
20
-200.000000
30
0.0
11
243.000000
21
-155.000000
31
0.0
0
LINE
8
TRI_GRID
10
288.000000
20
-200.000000
30
0.0
11
243.000000
21
-200.000000
31
0.0
0
LINE
8
TRI_GRID
10
333.000000
20
-155.000000
30
0.0
11
333.000000
21
-200.000000
31
0.0
0
LINE
8
TRI_GRID
10
333.000000
20
-200.000000
30
0.0
11
288.000000
21
-155.000000
31
0.0
0
LINE
8
TRI_GRID
10
333.000000
20
-200.000000
30
0.0
11
288.000000
21
-200.000000
31
0.0
0
LINE
8
TRI_GRID
10
378.000000
20
-155.000000
30
0.0
11
378.000000
21
-200.000000
31
0.0
0
LINE
8
TRI_GRID
10
378.000000
20
-200.000000
30
0.0
11
333.000000
21
-155.000000
31
0.0
0
LINE
8
TRI_GRID
10
378.000000
20
-200.000000
30
0.0
11
333.000000
21
-200.000000
31
0.0
0
LWPOLYLINE
8
FRAME
90
4
70
1
10
198.000000
20
-20.000000
10
378.000000
20
-20.000000
10
378.000000
20
-200.000000
10
198.000000
20
-200.000000
0
TEXT
8
LABELS
10
278.000000
20
-14.000000
30
0.0
40
10.000000
1
E1
0
TEXT
8
LABELS
10
248.000000
20
-212.000000
30
0.0
40
6.000000
1
AE1E1E1=1
0
LWPOLYLINE
8
BLACK_FILL
90
3
70
1
10
0.000000
20
-218.000000
10
45.000000
20
-218.000000
10
45.000000
20
-263.000000
0
LWPOLYLINE
8
BLACK_FILL
90
3
70
1
10
90.000000
20
-218.000000
10
135.000000
20
-218.000000
10
135.000000
20
-263.000000
0
LWPOLYLINE
8
BLACK_FILL
90
3
70
1
10
0.000000
20
-263.000000
10
45.000000
20
-263.000000
10
45.000000
20
-308.000000
0
LWPOLYLINE
8
BLACK_FILL
90
3
70
1
10
90.000000
20
-263.000000
10
135.000000
20
-263.000000
10
135.000000
20
-308.000000
0
LWPOLYLINE
8
BLACK_FILL
90
3
70
1
10
0.000000
20
-308.000000
10
45.000000
20
-308.000000
10
45.000000
20
-353.000000
0
LWPOLYLINE
8
BLACK_FILL
90
3
70
1
10
90.000000
20
-308.000000
10
135.000000
20
-308.000000
10
135.000000
20
-353.000000
0
LWPOLYLINE
8
BLACK_FILL
90
3
70
1
10
0.000000
20
-353.000000
10
45.000000
20
-353.000000
10
45.000000
20
-398.000000
0
LWPOLYLINE
8
BLACK_FILL
90
3
70
1
10
90.000000
20
-353.000000
10
135.000000
20
-353.000000
10
135.000000
20
-398.000000
0
LINE
8
TRI_GRID
10
0.000000
20
-218.000000
30
0.0
11
45.000000
21
-218.000000
31
0.0
0
LINE
8
TRI_GRID
10
45.000000
20
-218.000000
30
0.0
11
45.000000
21
-263.000000
31
0.0
0
LINE
8
TRI_GRID
10
45.000000
20
-263.000000
30
0.0
11
0.000000
21
-218.000000
31
0.0
0
LINE
8
TRI_GRID
10
45.000000
20
-263.000000
30
0.0
11
0.000000
21
-263.000000
31
0.0
0
LINE
8
TRI_GRID
10
0.000000
20
-263.000000
30
0.0
11
0.000000
21
-218.000000
31
0.0
0
LINE
8
TRI_GRID
10
45.000000
20
-218.000000
30
0.0
11
90.000000
21
-218.000000
31
0.0
0
LINE
8
TRI_GRID
10
90.000000
20
-218.000000
30
0.0
11
90.000000
21
-263.000000
31
0.0
0
LINE
8
TRI_GRID
10
90.000000
20
-263.000000
30
0.0
11
45.000000
21
-218.000000
31
0.0
0
LINE
8
TRI_GRID
10
90.000000
20
-263.000000
30
0.0
11
45.000000
21
-263.000000
31
0.0
0
LINE
8
TRI_GRID
10
90.000000
20
-218.000000
30
0.0
11
135.000000
21
-218.000000
31
0.0
0
LINE
8
TRI_GRID
10
135.000000
20
-218.000000
30
0.0
11
135.000000
21
-263.000000
31
0.0
0
LINE
8
TRI_GRID
10
135.000000
20
-263.000000
30
0.0
11
90.000000
21
-218.000000
31
0.0
0
LINE
8
TRI_GRID
10
135.000000
20
-263.000000
30
0.0
11
90.000000
21
-263.000000
31
0.0
0
LINE
8
TRI_GRID
10
135.000000
20
-218.000000
30
0.0
11
180.000000
21
-218.000000
31
0.0
0
LINE
8
TRI_GRID
10
180.000000
20
-218.000000
30
0.0
11
180.000000
21
-263.000000
31
0.0
0
LINE
8
TRI_GRID
10
180.000000
20
-263.000000
30
0.0
11
135.000000
21
-218.000000
31
0.0
0
LINE
8
TRI_GRID
10
180.000000
20
-263.000000
30
0.0
11
135.000000
21
-263.000000
31
0.0
0
LINE
8
TRI_GRID
10
45.000000
20
-263.000000
30
0.0
11
45.000000
21
-308.000000
31
0.0
0
LINE
8
TRI_GRID
10
45.000000
20
-308.000000
30
0.0
11
0.000000
21
-263.000000
31
0.0
0
LINE
8
TRI_GRID
10
45.000000
20
-308.000000
30
0.0
11
0.000000
21
-308.000000
31
0.0
0
LINE
8
TRI_GRID
10
0.000000
20
-308.000000
30
0.0
11
0.000000
21
-263.000000
31
0.0
0
LINE
8
TRI_GRID
10
90.000000
20
-263.000000
30
0.0
11
90.000000
21
-308.000000
31
0.0
0
LINE
8
TRI_GRID
10
90.000000
20
-308.000000
30
0.0
11
45.000000
21
-263.000000
31
0.0
0
LINE
8
TRI_GRID
10
90.000000
20
-308.000000
30
0.0
11
45.000000
21
-308.000000
31
0.0
0
LINE
8
TRI_GRID
10
135.000000
20
-263.000000
30
0.0
11
135.000000
21
-308.000000
31
0.0
0
LINE
8
TRI_GRID
10
135.000000
20
-308.000000
30
0.0
11
90.000000
21
-263.000000
31
0.0
0
LINE
8
TRI_GRID
10
135.000000
20
-308.000000
30
0.0
11
90.000000
21
-308.000000
31
0.0
0
LINE
8
TRI_GRID
10
180.000000
20
-263.000000
30
0.0
11
180.000000
21
-308.000000
31
0.0
0
LINE
8
TRI_GRID
10
180.000000
20
-308.000000
30
0.0
11
135.000000
21
-263.000000
31
0.0
0
LINE
8
TRI_GRID
10
180.000000
20
-308.000000
30
0.0
11
135.000000
21
-308.000000
31
0.0
0
LINE
8
TRI_GRID
10
45.000000
20
-308.000000
30
0.0
11
45.000000
21
-353.000000
31
0.0
0
LINE
8
TRI_GRID
10
45.000000
20
-353.000000
30
0.0
11
0.000000
21
-308.000000
31
0.0
0
LINE
8
TRI_GRID
10
45.000000
20
-353.000000
30
0.0
11
0.000000
21
-353.000000
31
0.0
0
LINE
8
TRI_GRID
10
0.000000
20
-353.000000
30
0.0
11
0.000000
21
-308.000000
31
0.0
0
LINE
8
TRI_GRID
10
90.000000
20
-308.000000
30
0.0
11
90.000000
21
-353.000000
31
0.0
0
LINE
8
TRI_GRID
10
90.000000
20
-353.000000
30
0.0
11
45.000000
21
-308.000000
31
0.0
0
LINE
8
TRI_GRID
10
90.000000
20
-353.000000
30
0.0
11
45.000000
21
-353.000000
31
0.0
0
LINE
8
TRI_GRID
10
135.000000
20
-308.000000
30
0.0
11
135.000000
21
-353.000000
31
0.0
0
LINE
8
TRI_GRID
10
135.000000
20
-353.000000
30
0.0
11
90.000000
21
-308.000000
31
0.0
0
LINE
8
TRI_GRID
10
135.000000
20
-353.000000
30
0.0
11
90.000000
21
-353.000000
31
0.0
0
LINE
8
TRI_GRID
10
180.000000
20
-308.000000
30
0.0
11
180.000000
21
-353.000000
31
0.0
0
LINE
8
TRI_GRID
10
180.000000
20
-353.000000
30
0.0
11
135.000000
21
-308.000000
31
0.0
0
LINE
8
TRI_GRID
10
180.000000
20
-353.000000
30
0.0
11
135.000000
21
-353.000000
31
0.0
0
LINE
8
TRI_GRID
10
45.000000
20
-353.000000
30
0.0
11
45.000000
21
-398.000000
31
0.0
0
LINE
8
TRI_GRID
10
45.000000
20
-398.000000
30
0.0
11
0.000000
21
-353.000000
31
0.0
0
LINE
8
TRI_GRID
10
45.000000
20
-398.000000
30
0.0
11
0.000000
21
-398.000000
31
0.0
0
LINE
8
TRI_GRID
10
0.000000
20
-398.000000
30
0.0
11
0.000000
21
-353.000000
31
0.0
0
LINE
8
TRI_GRID
10
90.000000
20
-353.000000
30
0.0
11
90.000000
21
-398.000000
31
0.0
0
LINE
8
TRI_GRID
10
90.000000
20
-398.000000
30
0.0
11
45.000000
21
-353.000000
31
0.0
0
LINE
8
TRI_GRID
10
90.000000
20
-398.000000
30
0.0
11
45.000000
21
-398.000000
31
0.0
0
LINE
8
TRI_GRID
10
135.000000
20
-353.000000
30
0.0
11
135.000000
21
-398.000000
31
0.0
0
LINE
8
TRI_GRID
10
135.000000
20
-398.000000
30
0.0
11
90.000000
21
-353.000000
31
0.0
0
LINE
8
TRI_GRID
10
135.000000
20
-398.000000
30
0.0
11
90.000000
21
-398.000000
31
0.0
0
LINE
8
TRI_GRID
10
180.000000
20
-353.000000
30
0.0
11
180.000000
21
-398.000000
31
0.0
0
LINE
8
TRI_GRID
10
180.000000
20
-398.000000
30
0.0
11
135.000000
21
-353.000000
31
0.0
0
LINE
8
TRI_GRID
10
180.000000
20
-398.000000
30
0.0
11
135.000000
21
-398.000000
31
0.0
0
LWPOLYLINE
8
FRAME
90
4
70
1
10
0.000000
20
-218.000000
10
180.000000
20
-218.000000
10
180.000000
20
-398.000000
10
0.000000
20
-398.000000
0
TEXT
8
LABELS
10
80.000000
20
-212.000000
30
0.0
40
10.000000
1
Do
0
TEXT
8
LABELS
10
50.000000
20
-410.000000
30
0.0
40
6.000000
1
DE1E1E2=1
0
LWPOLYLINE
8
BLACK_FILL
90
3
70
1
10
198.000000
20
-218.000000
10
243.000000
20
-218.000000
10
243.000000
20
-263.000000
0
LWPOLYLINE
8
BLACK_FILL
90
3
70
1
10
243.000000
20
-218.000000
10
288.000000
20
-218.000000
10
288.000000
20
-263.000000
0
LWPOLYLINE
8
BLACK_FILL
90
3
70
1
10
288.000000
20
-218.000000
10
333.000000
20
-218.000000
10
333.000000
20
-263.000000
0
LWPOLYLINE
8
BLACK_FILL
90
3
70
1
10
333.000000
20
-218.000000
10
378.000000
20
-218.000000
10
378.000000
20
-263.000000
0
LWPOLYLINE
8
BLACK_FILL
90
3
70
1
10
198.000000
20
-263.000000
10
243.000000
20
-263.000000
10
243.000000
20
-308.000000
0
LWPOLYLINE
8
BLACK_FILL
90
3
70
1
10
243.000000
20
-263.000000
10
288.000000
20
-263.000000
10
288.000000
20
-308.000000
0
LWPOLYLINE
8
BLACK_FILL
90
3
70
1
10
288.000000
20
-263.000000
10
333.000000
20
-263.000000
10
333.000000
20
-308.000000
0
LWPOLYLINE
8
BLACK_FILL
90
3
70
1
10
333.000000
20
-263.000000
10
378.000000
20
-263.000000
10
378.000000
20
-308.000000
0
LWPOLYLINE
8
BLACK_FILL
90
3
70
1
10
198.000000
20
-308.000000
10
243.000000
20
-308.000000
10
243.000000
20
-353.000000
0
LWPOLYLINE
8
BLACK_FILL
90
3
70
1
10
243.000000
20
-308.000000
10
288.000000
20
-308.000000
10
288.000000
20
-353.000000
0
LWPOLYLINE
8
BLACK_FILL
90
3
70
1
10
288.000000
20
-308.000000
10
333.000000
20
-308.000000
10
333.000000
20
-353.000000
0
LWPOLYLINE
8
BLACK_FILL
90
3
70
1
10
333.000000
20
-308.000000
10
378.000000
20
-308.000000
10
378.000000
20
-353.000000
0
LWPOLYLINE
8
BLACK_FILL
90
3
70
1
10
198.000000
20
-353.000000
10
243.000000
20
-353.000000
10
243.000000
20
-398.000000
0
LWPOLYLINE
8
BLACK_FILL
90
3
70
1
10
243.000000
20
-353.000000
10
288.000000
20
-353.000000
10
288.000000
20
-398.000000
0
LWPOLYLINE
8
BLACK_FILL
90
3
70
1
10
288.000000
20
-353.000000
10
333.000000
20
-353.000000
10
333.000000
20
-398.000000
0
LWPOLYLINE
8
BLACK_FILL
90
3
70
1
10
333.000000
20
-353.000000
10
378.000000
20
-353.000000
10
378.000000
20
-398.000000
0
LINE
8
TRI_GRID
10
198.000000
20
-218.000000
30
0.0
11
243.000000
21
-218.000000
31
0.0
0
LINE
8
TRI_GRID
10
243.000000
20
-218.000000
30
0.0
11
243.000000
21
-263.000000
31
0.0
0
LINE
8
TRI_GRID
10
243.000000
20
-263.000000
30
0.0
11
198.000000
21
-218.000000
31
0.0
0
LINE
8
TRI_GRID
10
243.000000
20
-263.000000
30
0.0
11
198.000000
21
-263.000000
31
0.0
0
LINE
8
TRI_GRID
10
198.000000
20
-263.000000
30
0.0
11
198.000000
21
-218.000000
31
0.0
0
LINE
8
TRI_GRID
10
243.000000
20
-218.000000
30
0.0
11
288.000000
21
-218.000000
31
0.0
0
LINE
8
TRI_GRID
10
288.000000
20
-218.000000
30
0.0
11
288.000000
21
-263.000000
31
0.0
0
LINE
8
TRI_GRID
10
288.000000
20
-263.000000
30
0.0
11
243.000000
21
-218.000000
31
0.0
0
LINE
8
TRI_GRID
10
288.000000
20
-263.000000
30
0.0
11
243.000000
21
-263.000000
31
0.0
0
LINE
8
TRI_GRID
10
288.000000
20
-218.000000
30
0.0
11
333.000000
21
-218.000000
31
0.0
0
LINE
8
TRI_GRID
10
333.000000
20
-218.000000
30
0.0
11
333.000000
21
-263.000000
31
0.0
0
LINE
8
TRI_GRID
10
333.000000
20
-263.000000
30
0.0
11
288.000000
21
-218.000000
31
0.0
0
LINE
8
TRI_GRID
10
333.000000
20
-263.000000
30
0.0
11
288.000000
21
-263.000000
31
0.0
0
LINE
8
TRI_GRID
10
333.000000
20
-218.000000
30
0.0
11
378.000000
21
-218.000000
31
0.0
0
LINE
8
TRI_GRID
10
378.000000
20
-218.000000
30
0.0
11
378.000000
21
-263.000000
31
0.0
0
LINE
8
TRI_GRID
10
378.000000
20
-263.000000
30
0.0
11
333.000000
21
-218.000000
31
0.0
0
LINE
8
TRI_GRID
10
378.000000
20
-263.000000
30
0.0
11
333.000000
21
-263.000000
31
0.0
0
LINE
8
TRI_GRID
10
243.000000
20
-263.000000
30
0.0
11
243.000000
21
-308.000000
31
0.0
0
LINE
8
TRI_GRID
10
243.000000
20
-308.000000
30
0.0
11
198.000000
21
-263.000000
31
0.0
0
LINE
8
TRI_GRID
10
243.000000
20
-308.000000
30
0.0
11
198.000000
21
-308.000000
31
0.0
0
LINE
8
TRI_GRID
10
198.000000
20
-308.000000
30
0.0
11
198.000000
21
-263.000000
31
0.0
0
LINE
8
TRI_GRID
10
288.000000
20
-263.000000
30
0.0
11
288.000000
21
-308.000000
31
0.0
0
LINE
8
TRI_GRID
10
288.000000
20
-308.000000
30
0.0
11
243.000000
21
-263.000000
31
0.0
0
LINE
8
TRI_GRID
10
288.000000
20
-308.000000
30
0.0
11
243.000000
21
-308.000000
31
0.0
0
LINE
8
TRI_GRID
10
333.000000
20
-263.000000
30
0.0
11
333.000000
21
-308.000000
31
0.0
0
LINE
8
TRI_GRID
10
333.000000
20
-308.000000
30
0.0
11
288.000000
21
-263.000000
31
0.0
0
LINE
8
TRI_GRID
10
333.000000
20
-308.000000
30
0.0
11
288.000000
21
-308.000000
31
0.0
0
LINE
8
TRI_GRID
10
378.000000
20
-263.000000
30
0.0
11
378.000000
21
-308.000000
31
0.0
0
LINE
8
TRI_GRID
10
378.000000
20
-308.000000
30
0.0
11
333.000000
21
-263.000000
31
0.0
0
LINE
8
TRI_GRID
10
378.000000
20
-308.000000
30
0.0
11
333.000000
21
-308.000000
31
0.0
0
LINE
8
TRI_GRID
10
243.000000
20
-308.000000
30
0.0
11
243.000000
21
-353.000000
31
0.0
0
LINE
8
TRI_GRID
10
243.000000
20
-353.000000
30
0.0
11
198.000000
21
-308.000000
31
0.0
0
LINE
8
TRI_GRID
10
243.000000
20
-353.000000
30
0.0
11
198.000000
21
-353.000000
31
0.0
0
LINE
8
TRI_GRID
10
198.000000
20
-353.000000
30
0.0
11
198.000000
21
-308.000000
31
0.0
0
LINE
8
TRI_GRID
10
288.000000
20
-308.000000
30
0.0
11
288.000000
21
-353.000000
31
0.0
0
LINE
8
TRI_GRID
10
288.000000
20
-353.000000
30
0.0
11
243.000000
21
-308.000000
31
0.0
0
LINE
8
TRI_GRID
10
288.000000
20
-353.000000
30
0.0
11
243.000000
21
-353.000000
31
0.0
0
LINE
8
TRI_GRID
10
333.000000
20
-308.000000
30
0.0
11
333.000000
21
-353.000000
31
0.0
0
LINE
8
TRI_GRID
10
333.000000
20
-353.000000
30
0.0
11
288.000000
21
-308.000000
31
0.0
0
LINE
8
TRI_GRID
10
333.000000
20
-353.000000
30
0.0
11
288.000000
21
-353.000000
31
0.0
0
LINE
8
TRI_GRID
10
378.000000
20
-308.000000
30
0.0
11
378.000000
21
-353.000000
31
0.0
0
LINE
8
TRI_GRID
10
378.000000
20
-353.000000
30
0.0
11
333.000000
21
-308.000000
31
0.0
0
LINE
8
TRI_GRID
10
378.000000
20
-353.000000
30
0.0
11
333.000000
21
-353.000000
31
0.0
0
LINE
8
TRI_GRID
10
243.000000
20
-353.000000
30
0.0
11
243.000000
21
-398.000000
31
0.0
0
LINE
8
TRI_GRID
10
243.000000
20
-398.000000
30
0.0
11
198.000000
21
-353.000000
31
0.0
0
LINE
8
TRI_GRID
10
243.000000
20
-398.000000
30
0.0
11
198.000000
21
-398.000000
31
0.0
0
LINE
8
TRI_GRID
10
198.000000
20
-398.000000
30
0.0
11
198.000000
21
-353.000000
31
0.0
0
LINE
8
TRI_GRID
10
288.000000
20
-353.000000
30
0.0
11
288.000000
21
-398.000000
31
0.0
0
LINE
8
TRI_GRID
10
288.000000
20
-398.000000
30
0.0
11
243.000000
21
-353.000000
31
0.0
0
LINE
8
TRI_GRID
10
288.000000
20
-398.000000
30
0.0
11
243.000000
21
-398.000000
31
0.0
0
LINE
8
TRI_GRID
10
333.000000
20
-353.000000
30
0.0
11
333.000000
21
-398.000000
31
0.0
0
LINE
8
TRI_GRID
10
333.000000
20
-398.000000
30
0.0
11
288.000000
21
-353.000000
31
0.0
0
LINE
8
TRI_GRID
10
333.000000
20
-398.000000
30
0.0
11
288.000000
21
-398.000000
31
0.0
0
LINE
8
TRI_GRID
10
378.000000
20
-353.000000
30
0.0
11
378.000000
21
-398.000000
31
0.0
0
LINE
8
TRI_GRID
10
378.000000
20
-398.000000
30
0.0
11
333.000000
21
-353.000000
31
0.0
0
LINE
8
TRI_GRID
10
378.000000
20
-398.000000
30
0.0
11
333.000000
21
-398.000000
31
0.0
0
LWPOLYLINE
8
FRAME
90
4
70
1
10
198.000000
20
-218.000000
10
378.000000
20
-218.000000
10
378.000000
20
-398.000000
10
198.000000
20
-398.000000
0
TEXT
8
LABELS
10
278.000000
20
-212.000000
30
0.0
40
10.000000
1
H/O
0
TEXT
8
LABELS
10
248.000000
20
-410.000000
30
0.0
40
6.000000
1
AOOO=1
0
LINE
8
TRI_GRID
10
396.000000
20
-218.000000
30
0.0
11
441.000000
21
-218.000000
31
0.0
0
LINE
8
TRI_GRID
10
441.000000
20
-218.000000
30
0.0
11
441.000000
21
-263.000000
31
0.0
0
LINE
8
TRI_GRID
10
441.000000
20
-263.000000
30
0.0
11
396.000000
21
-218.000000
31
0.0
0
LINE
8
TRI_GRID
10
441.000000
20
-263.000000
30
0.0
11
396.000000
21
-263.000000
31
0.0
0
LINE
8
TRI_GRID
10
396.000000
20
-263.000000
30
0.0
11
396.000000
21
-218.000000
31
0.0
0
LINE
8
TRI_GRID
10
441.000000
20
-218.000000
30
0.0
11
486.000000
21
-218.000000
31
0.0
0
LINE
8
TRI_GRID
10
486.000000
20
-218.000000
30
0.0
11
486.000000
21
-263.000000
31
0.0
0
LINE
8
TRI_GRID
10
486.000000
20
-263.000000
30
0.0
11
441.000000
21
-218.000000
31
0.0
0
LINE
8
TRI_GRID
10
486.000000
20
-263.000000
30
0.0
11
441.000000
21
-263.000000
31
0.0
0
LINE
8
TRI_GRID
10
486.000000
20
-218.000000
30
0.0
11
531.000000
21
-218.000000
31
0.0
0
LINE
8
TRI_GRID
10
531.000000
20
-218.000000
30
0.0
11
531.000000
21
-263.000000
31
0.0
0
LINE
8
TRI_GRID
10
531.000000
20
-263.000000
30
0.0
11
486.000000
21
-218.000000
31
0.0
0
LINE
8
TRI_GRID
10
531.000000
20
-263.000000
30
0.0
11
486.000000
21
-263.000000
31
0.0
0
LINE
8
TRI_GRID
10
531.000000
20
-218.000000
30
0.0
11
576.000000
21
-218.000000
31
0.0
0
LINE
8
TRI_GRID
10
576.000000
20
-218.000000
30
0.0
11
576.000000
21
-263.000000
31
0.0
0
LINE
8
TRI_GRID
10
576.000000
20
-263.000000
30
0.0
11
531.000000
21
-218.000000
31
0.0
0
LINE
8
TRI_GRID
10
576.000000
20
-263.000000
30
0.0
11
531.000000
21
-263.000000
31
0.0
0
LINE
8
TRI_GRID
10
441.000000
20
-263.000000
30
0.0
11
441.000000
21
-308.000000
31
0.0
0
LINE
8
TRI_GRID
10
441.000000
20
-308.000000
30
0.0
11
396.000000
21
-263.000000
31
0.0
0
LINE
8
TRI_GRID
10
441.000000
20
-308.000000
30
0.0
11
396.000000
21
-308.000000
31
0.0
0
LINE
8
TRI_GRID
10
396.000000
20
-308.000000
30
0.0
11
396.000000
21
-263.000000
31
0.0
0
LINE
8
TRI_GRID
10
486.000000
20
-263.000000
30
0.0
11
486.000000
21
-308.000000
31
0.0
0
LINE
8
TRI_GRID
10
486.000000
20
-308.000000
30
0.0
11
441.000000
21
-263.000000
31
0.0
0
LINE
8
TRI_GRID
10
486.000000
20
-308.000000
30
0.0
11
441.000000
21
-308.000000
31
0.0
0
LINE
8
TRI_GRID
10
531.000000
20
-263.000000
30
0.0
11
531.000000
21
-308.000000
31
0.0
0
LINE
8
TRI_GRID
10
531.000000
20
-308.000000
30
0.0
11
486.000000
21
-263.000000
31
0.0
0
LINE
8
TRI_GRID
10
531.000000
20
-308.000000
30
0.0
11
486.000000
21
-308.000000
31
0.0
0
LINE
8
TRI_GRID
10
576.000000
20
-263.000000
30
0.0
11
576.000000
21
-308.000000
31
0.0
0
LINE
8
TRI_GRID
10
576.000000
20
-308.000000
30
0.0
11
531.000000
21
-263.000000
31
0.0
0
LINE
8
TRI_GRID
10
576.000000
20
-308.000000
30
0.0
11
531.000000
21
-308.000000
31
0.0
0
LINE
8
TRI_GRID
10
441.000000
20
-308.000000
30
0.0
11
441.000000
21
-353.000000
31
0.0
0
LINE
8
TRI_GRID
10
441.000000
20
-353.000000
30
0.0
11
396.000000
21
-308.000000
31
0.0
0
LINE
8
TRI_GRID
10
441.000000
20
-353.000000
30
0.0
11
396.000000
21
-353.000000
31
0.0
0
LINE
8
TRI_GRID
10
396.000000
20
-353.000000
30
0.0
11
396.000000
21
-308.000000
31
0.0
0
LINE
8
TRI_GRID
10
486.000000
20
-308.000000
30
0.0
11
486.000000
21
-353.000000
31
0.0
0
LINE
8
TRI_GRID
10
486.000000
20
-353.000000
30
0.0
11
441.000000
21
-308.000000
31
0.0
0
LINE
8
TRI_GRID
10
486.000000
20
-353.000000
30
0.0
11
441.000000
21
-353.000000
31
0.0
0
LINE
8
TRI_GRID
10
531.000000
20
-308.000000
30
0.0
11
531.000000
21
-353.000000
31
0.0
0
LINE
8
TRI_GRID
10
531.000000
20
-353.000000
30
0.0
11
486.000000
21
-308.000000
31
0.0
0
LINE
8
TRI_GRID
10
531.000000
20
-353.000000
30
0.0
11
486.000000
21
-353.000000
31
0.0
0
LINE
8
TRI_GRID
10
576.000000
20
-308.000000
30
0.0
11
576.000000
21
-353.000000
31
0.0
0
LINE
8
TRI_GRID
10
576.000000
20
-353.000000
30
0.0
11
531.000000
21
-308.000000
31
0.0
0
LINE
8
TRI_GRID
10
576.000000
20
-353.000000
30
0.0
11
531.000000
21
-353.000000
31
0.0
0
LINE
8
TRI_GRID
10
441.000000
20
-353.000000
30
0.0
11
441.000000
21
-398.000000
31
0.0
0
LINE
8
TRI_GRID
10
441.000000
20
-398.000000
30
0.0
11
396.000000
21
-353.000000
31
0.0
0
LINE
8
TRI_GRID
10
441.000000
20
-398.000000
30
0.0
11
396.000000
21
-398.000000
31
0.0
0
LINE
8
TRI_GRID
10
396.000000
20
-398.000000
30
0.0
11
396.000000
21
-353.000000
31
0.0
0
LINE
8
TRI_GRID
10
486.000000
20
-353.000000
30
0.0
11
486.000000
21
-398.000000
31
0.0
0
LINE
8
TRI_GRID
10
486.000000
20
-398.000000
30
0.0
11
441.000000
21
-353.000000
31
0.0
0
LINE
8
TRI_GRID
10
486.000000
20
-398.000000
30
0.0
11
441.000000
21
-398.000000
31
0.0
0
LINE
8
TRI_GRID
10
531.000000
20
-353.000000
30
0.0
11
531.000000
21
-398.000000
31
0.0
0
LINE
8
TRI_GRID
10
531.000000
20
-398.000000
30
0.0
11
486.000000
21
-353.000000
31
0.0
0
LINE
8
TRI_GRID
10
531.000000
20
-398.000000
30
0.0
11
486.000000
21
-398.000000
31
0.0
0
LINE
8
TRI_GRID
10
576.000000
20
-353.000000
30
0.0
11
576.000000
21
-398.000000
31
0.0
0
LINE
8
TRI_GRID
10
576.000000
20
-398.000000
30
0.0
11
531.000000
21
-353.000000
31
0.0
0
LINE
8
TRI_GRID
10
576.000000
20
-398.000000
30
0.0
11
531.000000
21
-398.000000
31
0.0
0
LWPOLYLINE
8
FRAME
90
4
70
1
10
396.000000
20
-218.000000
10
576.000000
20
-218.000000
10
576.000000
20
-398.000000
10
396.000000
20
-398.000000
0
TEXT
8
LABELS
10
476.000000
20
-212.000000
30
0.0
40
10.000000
1
E2
0
TEXT
8
LABELS
10
446.000000
20
-410.000000
30
0.0
40
6.000000
1
AE2E2E2=0
0
LWPOLYLINE
8
BLACK_FILL
90
3
70
1
10
594.000000
20
-218.000000
10
639.000000
20
-263.000000
10
594.000000
20
-263.000000
0
LWPOLYLINE
8
BLACK_FILL
90
3
70
1
10
639.000000
20
-218.000000
10
684.000000
20
-263.000000
10
639.000000
20
-263.000000
0
LWPOLYLINE
8
BLACK_FILL
90
3
70
1
10
684.000000
20
-218.000000
10
729.000000
20
-263.000000
10
684.000000
20
-263.000000
0
LWPOLYLINE
8
BLACK_FILL
90
3
70
1
10
729.000000
20
-218.000000
10
774.000000
20
-263.000000
10
729.000000
20
-263.000000
0
LWPOLYLINE
8
BLACK_FILL
90
3
70
1
10
594.000000
20
-263.000000
10
639.000000
20
-308.000000
10
594.000000
20
-308.000000
0
LWPOLYLINE
8
BLACK_FILL
90
3
70
1
10
639.000000
20
-263.000000
10
684.000000
20
-308.000000
10
639.000000
20
-308.000000
0
LWPOLYLINE
8
BLACK_FILL
90
3
70
1
10
684.000000
20
-263.000000
10
729.000000
20
-308.000000
10
684.000000
20
-308.000000
0
LWPOLYLINE
8
BLACK_FILL
90
3
70
1
10
729.000000
20
-263.000000
10
774.000000
20
-308.000000
10
729.000000
20
-308.000000
0
LWPOLYLINE
8
BLACK_FILL
90
3
70
1
10
594.000000
20
-308.000000
10
639.000000
20
-353.000000
10
594.000000
20
-353.000000
0
LWPOLYLINE
8
BLACK_FILL
90
3
70
1
10
639.000000
20
-308.000000
10
684.000000
20
-353.000000
10
639.000000
20
-353.000000
0
LWPOLYLINE
8
BLACK_FILL
90
3
70
1
10
684.000000
20
-308.000000
10
729.000000
20
-353.000000
10
684.000000
20
-353.000000
0
LWPOLYLINE
8
BLACK_FILL
90
3
70
1
10
729.000000
20
-308.000000
10
774.000000
20
-353.000000
10
729.000000
20
-353.000000
0
LWPOLYLINE
8
BLACK_FILL
90
3
70
1
10
594.000000
20
-353.000000
10
639.000000
20
-398.000000
10
594.000000
20
-398.000000
0
LWPOLYLINE
8
BLACK_FILL
90
3
70
1
10
639.000000
20
-353.000000
10
684.000000
20
-398.000000
10
639.000000
20
-398.000000
0
LWPOLYLINE
8
BLACK_FILL
90
3
70
1
10
684.000000
20
-353.000000
10
729.000000
20
-398.000000
10
684.000000
20
-398.000000
0
LWPOLYLINE
8
BLACK_FILL
90
3
70
1
10
729.000000
20
-353.000000
10
774.000000
20
-398.000000
10
729.000000
20
-398.000000
0
LINE
8
TRI_GRID
10
594.000000
20
-218.000000
30
0.0
11
639.000000
21
-218.000000
31
0.0
0
LINE
8
TRI_GRID
10
639.000000
20
-218.000000
30
0.0
11
639.000000
21
-263.000000
31
0.0
0
LINE
8
TRI_GRID
10
639.000000
20
-263.000000
30
0.0
11
594.000000
21
-218.000000
31
0.0
0
LINE
8
TRI_GRID
10
639.000000
20
-263.000000
30
0.0
11
594.000000
21
-263.000000
31
0.0
0
LINE
8
TRI_GRID
10
594.000000
20
-263.000000
30
0.0
11
594.000000
21
-218.000000
31
0.0
0
LINE
8
TRI_GRID
10
639.000000
20
-218.000000
30
0.0
11
684.000000
21
-218.000000
31
0.0
0
LINE
8
TRI_GRID
10
684.000000
20
-218.000000
30
0.0
11
684.000000
21
-263.000000
31
0.0
0
LINE
8
TRI_GRID
10
684.000000
20
-263.000000
30
0.0
11
639.000000
21
-218.000000
31
0.0
0
LINE
8
TRI_GRID
10
684.000000
20
-263.000000
30
0.0
11
639.000000
21
-263.000000
31
0.0
0
LINE
8
TRI_GRID
10
684.000000
20
-218.000000
30
0.0
11
729.000000
21
-218.000000
31
0.0
0
LINE
8
TRI_GRID
10
729.000000
20
-218.000000
30
0.0
11
729.000000
21
-263.000000
31
0.0
0
LINE
8
TRI_GRID
10
729.000000
20
-263.000000
30
0.0
11
684.000000
21
-218.000000
31
0.0
0
LINE
8
TRI_GRID
10
729.000000
20
-263.000000
30
0.0
11
684.000000
21
-263.000000
31
0.0
0
LINE
8
TRI_GRID
10
729.000000
20
-218.000000
30
0.0
11
774.000000
21
-218.000000
31
0.0
0
LINE
8
TRI_GRID
10
774.000000
20
-218.000000
30
0.0
11
774.000000
21
-263.000000
31
0.0
0
LINE
8
TRI_GRID
10
774.000000
20
-263.000000
30
0.0
11
729.000000
21
-218.000000
31
0.0
0
LINE
8
TRI_GRID
10
774.000000
20
-263.000000
30
0.0
11
729.000000
21
-263.000000
31
0.0
0
LINE
8
TRI_GRID
10
639.000000
20
-263.000000
30
0.0
11
639.000000
21
-308.000000
31
0.0
0
LINE
8
TRI_GRID
10
639.000000
20
-308.000000
30
0.0
11
594.000000
21
-263.000000
31
0.0
0
LINE
8
TRI_GRID
10
639.000000
20
-308.000000
30
0.0
11
594.000000
21
-308.000000
31
0.0
0
LINE
8
TRI_GRID
10
594.000000
20
-308.000000
30
0.0
11
594.000000
21
-263.000000
31
0.0
0
LINE
8
TRI_GRID
10
684.000000
20
-263.000000
30
0.0
11
684.000000
21
-308.000000
31
0.0
0
LINE
8
TRI_GRID
10
684.000000
20
-308.000000
30
0.0
11
639.000000
21
-263.000000
31
0.0
0
LINE
8
TRI_GRID
10
684.000000
20
-308.000000
30
0.0
11
639.000000
21
-308.000000
31
0.0
0
LINE
8
TRI_GRID
10
729.000000
20
-263.000000
30
0.0
11
729.000000
21
-308.000000
31
0.0
0
LINE
8
TRI_GRID
10
729.000000
20
-308.000000
30
0.0
11
684.000000
21
-263.000000
31
0.0
0
LINE
8
TRI_GRID
10
729.000000
20
-308.000000
30
0.0
11
684.000000
21
-308.000000
31
0.0
0
LINE
8
TRI_GRID
10
774.000000
20
-263.000000
30
0.0
11
774.000000
21
-308.000000
31
0.0
0
LINE
8
TRI_GRID
10
774.000000
20
-308.000000
30
0.0
11
729.000000
21
-263.000000
31
0.0
0
LINE
8
TRI_GRID
10
774.000000
20
-308.000000
30
0.0
11
729.000000
21
-308.000000
31
0.0
0
LINE
8
TRI_GRID
10
639.000000
20
-308.000000
30
0.0
11
639.000000
21
-353.000000
31
0.0
0
LINE
8
TRI_GRID
10
639.000000
20
-353.000000
30
0.0
11
594.000000
21
-308.000000
31
0.0
0
LINE
8
TRI_GRID
10
639.000000
20
-353.000000
30
0.0
11
594.000000
21
-353.000000
31
0.0
0
LINE
8
TRI_GRID
10
594.000000
20
-353.000000
30
0.0
11
594.000000
21
-308.000000
31
0.0
0
LINE
8
TRI_GRID
10
684.000000
20
-308.000000
30
0.0
11
684.000000
21
-353.000000
31
0.0
0
LINE
8
TRI_GRID
10
684.000000
20
-353.000000
30
0.0
11
639.000000
21
-308.000000
31
0.0
0
LINE
8
TRI_GRID
10
684.000000
20
-353.000000
30
0.0
11
639.000000
21
-353.000000
31
0.0
0
LINE
8
TRI_GRID
10
729.000000
20
-308.000000
30
0.0
11
729.000000
21
-353.000000
31
0.0
0
LINE
8
TRI_GRID
10
729.000000
20
-353.000000
30
0.0
11
684.000000
21
-308.000000
31
0.0
0
LINE
8
TRI_GRID
10
729.000000
20
-353.000000
30
0.0
11
684.000000
21
-353.000000
31
0.0
0
LINE
8
TRI_GRID
10
774.000000
20
-308.000000
30
0.0
11
774.000000
21
-353.000000
31
0.0
0
LINE
8
TRI_GRID
10
774.000000
20
-353.000000
30
0.0
11
729.000000
21
-308.000000
31
0.0
0
LINE
8
TRI_GRID
10
774.000000
20
-353.000000
30
0.0
11
729.000000
21
-353.000000
31
0.0
0
LINE
8
TRI_GRID
10
639.000000
20
-353.000000
30
0.0
11
639.000000
21
-398.000000
31
0.0
0
LINE
8
TRI_GRID
10
639.000000
20
-398.000000
30
0.0
11
594.000000
21
-353.000000
31
0.0
0
LINE
8
TRI_GRID
10
639.000000
20
-398.000000
30
0.0
11
594.000000
21
-398.000000
31
0.0
0
LINE
8
TRI_GRID
10
594.000000
20
-398.000000
30
0.0
11
594.000000
21
-353.000000
31
0.0
0
LINE
8
TRI_GRID
10
684.000000
20
-353.000000
30
0.0
11
684.000000
21
-398.000000
31
0.0
0
LINE
8
TRI_GRID
10
684.000000
20
-398.000000
30
0.0
11
639.000000
21
-353.000000
31
0.0
0
LINE
8
TRI_GRID
10
684.000000
20
-398.000000
30
0.0
11
639.000000
21
-398.000000
31
0.0
0
LINE
8
TRI_GRID
10
729.000000
20
-353.000000
30
0.0
11
729.000000
21
-398.000000
31
0.0
0
LINE
8
TRI_GRID
10
729.000000
20
-398.000000
30
0.0
11
684.000000
21
-353.000000
31
0.0
0
LINE
8
TRI_GRID
10
729.000000
20
-398.000000
30
0.0
11
684.000000
21
-398.000000
31
0.0
0
LINE
8
TRI_GRID
10
774.000000
20
-353.000000
30
0.0
11
774.000000
21
-398.000000
31
0.0
0
LINE
8
TRI_GRID
10
774.000000
20
-398.000000
30
0.0
11
729.000000
21
-353.000000
31
0.0
0
LINE
8
TRI_GRID
10
774.000000
20
-398.000000
30
0.0
11
729.000000
21
-398.000000
31
0.0
0
LWPOLYLINE
8
FRAME
90
4
70
1
10
594.000000
20
-218.000000
10
774.000000
20
-218.000000
10
774.000000
20
-398.000000
10
594.000000
20
-398.000000
0
TEXT
8
LABELS
10
674.000000
20
-212.000000
30
0.0
40
10.000000
1
C
0
TEXT
8
LABELS
10
644.000000
20
-410.000000
30
0.0
40
6.000000
1
E1E1E1O=1
0
LINE
8
TRI_GRID
10
198.000000
20
-416.000000
30
0.0
11
243.000000
21
-416.000000
31
0.0
0
LINE
8
TRI_GRID
10
243.000000
20
-416.000000
30
0.0
11
243.000000
21
-461.000000
31
0.0
0
LINE
8
TRI_GRID
10
243.000000
20
-461.000000
30
0.0
11
198.000000
21
-416.000000
31
0.0
0
LINE
8
TRI_GRID
10
243.000000
20
-461.000000
30
0.0
11
198.000000
21
-461.000000
31
0.0
0
LINE
8
TRI_GRID
10
198.000000
20
-461.000000
30
0.0
11
198.000000
21
-416.000000
31
0.0
0
LINE
8
TRI_GRID
10
243.000000
20
-416.000000
30
0.0
11
288.000000
21
-416.000000
31
0.0
0
LINE
8
TRI_GRID
10
288.000000
20
-416.000000
30
0.0
11
288.000000
21
-461.000000
31
0.0
0
LINE
8
TRI_GRID
10
288.000000
20
-461.000000
30
0.0
11
243.000000
21
-416.000000
31
0.0
0
LINE
8
TRI_GRID
10
288.000000
20
-461.000000
30
0.0
11
243.000000
21
-461.000000
31
0.0
0
LINE
8
TRI_GRID
10
288.000000
20
-416.000000
30
0.0
11
333.000000
21
-416.000000
31
0.0
0
LINE
8
TRI_GRID
10
333.000000
20
-416.000000
30
0.0
11
333.000000
21
-461.000000
31
0.0
0
LINE
8
TRI_GRID
10
333.000000
20
-461.000000
30
0.0
11
288.000000
21
-416.000000
31
0.0
0
LINE
8
TRI_GRID
10
333.000000
20
-461.000000
30
0.0
11
288.000000
21
-461.000000
31
0.0
0
LINE
8
TRI_GRID
10
333.000000
20
-416.000000
30
0.0
11
378.000000
21
-416.000000
31
0.0
0
LINE
8
TRI_GRID
10
378.000000
20
-416.000000
30
0.0
11
378.000000
21
-461.000000
31
0.0
0
LINE
8
TRI_GRID
10
378.000000
20
-461.000000
30
0.0
11
333.000000
21
-416.000000
31
0.0
0
LINE
8
TRI_GRID
10
378.000000
20
-461.000000
30
0.0
11
333.000000
21
-461.000000
31
0.0
0
LINE
8
TRI_GRID
10
243.000000
20
-461.000000
30
0.0
11
243.000000
21
-506.000000
31
0.0
0
LINE
8
TRI_GRID
10
243.000000
20
-506.000000
30
0.0
11
198.000000
21
-461.000000
31
0.0
0
LINE
8
TRI_GRID
10
243.000000
20
-506.000000
30
0.0
11
198.000000
21
-506.000000
31
0.0
0
LINE
8
TRI_GRID
10
198.000000
20
-506.000000
30
0.0
11
198.000000
21
-461.000000
31
0.0
0
LINE
8
TRI_GRID
10
288.000000
20
-461.000000
30
0.0
11
288.000000
21
-506.000000
31
0.0
0
LINE
8
TRI_GRID
10
288.000000
20
-506.000000
30
0.0
11
243.000000
21
-461.000000
31
0.0
0
LINE
8
TRI_GRID
10
288.000000
20
-506.000000
30
0.0
11
243.000000
21
-506.000000
31
0.0
0
LINE
8
TRI_GRID
10
333.000000
20
-461.000000
30
0.0
11
333.000000
21
-506.000000
31
0.0
0
LINE
8
TRI_GRID
10
333.000000
20
-506.000000
30
0.0
11
288.000000
21
-461.000000
31
0.0
0
LINE
8
TRI_GRID
10
333.000000
20
-506.000000
30
0.0
11
288.000000
21
-506.000000
31
0.0
0
LINE
8
TRI_GRID
10
378.000000
20
-461.000000
30
0.0
11
378.000000
21
-506.000000
31
0.0
0
LINE
8
TRI_GRID
10
378.000000
20
-506.000000
30
0.0
11
333.000000
21
-461.000000
31
0.0
0
LINE
8
TRI_GRID
10
378.000000
20
-506.000000
30
0.0
11
333.000000
21
-506.000000
31
0.0
0
LINE
8
TRI_GRID
10
243.000000
20
-506.000000
30
0.0
11
243.000000
21
-551.000000
31
0.0
0
LINE
8
TRI_GRID
10
243.000000
20
-551.000000
30
0.0
11
198.000000
21
-506.000000
31
0.0
0
LINE
8
TRI_GRID
10
243.000000
20
-551.000000
30
0.0
11
198.000000
21
-551.000000
31
0.0
0
LINE
8
TRI_GRID
10
198.000000
20
-551.000000
30
0.0
11
198.000000
21
-506.000000
31
0.0
0
LINE
8
TRI_GRID
10
288.000000
20
-506.000000
30
0.0
11
288.000000
21
-551.000000
31
0.0
0
LINE
8
TRI_GRID
10
288.000000
20
-551.000000
30
0.0
11
243.000000
21
-506.000000
31
0.0
0
LINE
8
TRI_GRID
10
288.000000
20
-551.000000
30
0.0
11
243.000000
21
-551.000000
31
0.0
0
LINE
8
TRI_GRID
10
333.000000
20
-506.000000
30
0.0
11
333.000000
21
-551.000000
31
0.0
0
LINE
8
TRI_GRID
10
333.000000
20
-551.000000
30
0.0
11
288.000000
21
-506.000000
31
0.0
0
LINE
8
TRI_GRID
10
333.000000
20
-551.000000
30
0.0
11
288.000000
21
-551.000000
31
0.0
0
LINE
8
TRI_GRID
10
378.000000
20
-506.000000
30
0.0
11
378.000000
21
-551.000000
31
0.0
0
LINE
8
TRI_GRID
10
378.000000
20
-551.000000
30
0.0
11
333.000000
21
-506.000000
31
0.0
0
LINE
8
TRI_GRID
10
378.000000
20
-551.000000
30
0.0
11
333.000000
21
-551.000000
31
0.0
0
LINE
8
TRI_GRID
10
243.000000
20
-551.000000
30
0.0
11
243.000000
21
-596.000000
31
0.0
0
LINE
8
TRI_GRID
10
243.000000
20
-596.000000
30
0.0
11
198.000000
21
-551.000000
31
0.0
0
LINE
8
TRI_GRID
10
243.000000
20
-596.000000
30
0.0
11
198.000000
21
-596.000000
31
0.0
0
LINE
8
TRI_GRID
10
198.000000
20
-596.000000
30
0.0
11
198.000000
21
-551.000000
31
0.0
0
LINE
8
TRI_GRID
10
288.000000
20
-551.000000
30
0.0
11
288.000000
21
-596.000000
31
0.0
0
LINE
8
TRI_GRID
10
288.000000
20
-596.000000
30
0.0
11
243.000000
21
-551.000000
31
0.0
0
LINE
8
TRI_GRID
10
288.000000
20
-596.000000
30
0.0
11
243.000000
21
-596.000000
31
0.0
0
LINE
8
TRI_GRID
10
333.000000
20
-551.000000
30
0.0
11
333.000000
21
-596.000000
31
0.0
0
LINE
8
TRI_GRID
10
333.000000
20
-596.000000
30
0.0
11
288.000000
21
-551.000000
31
0.0
0
LINE
8
TRI_GRID
10
333.000000
20
-596.000000
30
0.0
11
288.000000
21
-596.000000
31
0.0
0
LINE
8
TRI_GRID
10
378.000000
20
-551.000000
30
0.0
11
378.000000
21
-596.000000
31
0.0
0
LINE
8
TRI_GRID
10
378.000000
20
-596.000000
30
0.0
11
333.000000
21
-551.000000
31
0.0
0
LINE
8
TRI_GRID
10
378.000000
20
-596.000000
30
0.0
11
333.000000
21
-596.000000
31
0.0
0
LWPOLYLINE
8
FRAME
90
4
70
1
10
198.000000
20
-416.000000
10
378.000000
20
-416.000000
10
378.000000
20
-596.000000
10
198.000000
20
-596.000000
0
TEXT
8
LABELS
10
278.000000
20
-410.000000
30
0.0
40
10.000000
1
De
0
TEXT
8
LABELS
10
248.000000
20
-608.000000
30
0.0
40
6.000000
1
DE1OM+=0
0
ENDSEC
0
EOF
